<?xml version="1.0" encoding="utf-8"?>
<!-- Generator: Adobe Illustrator 18.1.1, SVG Export Plug-In . SVG Version: 6.00 Build 0)  -->
<svg version="1.1" id="Layer_1" xmlns="http://www.w3.org/2000/svg" xmlns:xlink="http://www.w3.org/1999/xlink" x="0px" y="0px"
	 viewBox="0 0 300 250" enable-background="new 0 0 300 250" xml:space="preserve">
<g>
	<g>
		<path d="M135.2,135.9V117l-3.1,2.3V116l3.1-2.3h3.2v22.2C138.4,135.9,135.2,135.9,135.2,135.9z"/>
		<path d="M141.6,129.4c0-2.2,0.9-3.8,2.7-5c-1.5-1.4-2.2-2.9-2.2-4.5c0-1.7,0.6-3.4,1.9-4.5c1.3-1.3,2.8-1.9,4.5-1.9
			c1.9,0,3.4,0.6,4.5,1.9c1.3,1.3,1.9,2.8,1.9,4.5c0,1.6-0.7,3.1-2.2,4.5c1.7,1.2,2.7,2.9,2.7,5c0,2-0.7,3.6-2,4.9s-2.9,1.9-4.7,1.9
			s-3.5-0.6-4.7-1.9C142.2,132.9,141.6,131.4,141.6,129.4z M144.8,129.4c0,1,0.3,1.9,1,2.5s1.5,1,2.5,1c0.9,0,1.9-0.3,2.5-1
			s1-1.5,1-2.5c0-1-0.3-1.9-1-2.5s-1.5-1-2.5-1c-0.9,0-1.9,0.3-2.5,1C145.1,127.5,144.8,128.4,144.8,129.4z M145.1,119.8
			c0,1,0.3,1.9,1,2.4c0.6,0.6,1.3,0.8,2.2,0.8s1.6-0.2,2.2-0.8c0.6-0.6,0.9-1.4,0.9-2.3c0-0.9-0.3-1.7-0.9-2.3
			c-0.6-0.6-1.4-0.8-2.2-0.8c-0.9,0-1.6,0.2-2.2,0.8C145.5,118.1,145.1,118.9,145.1,119.8z"/>
		<path d="M157.8,129.6v-9.8c0-2,0.7-3.6,2-4.7c1.2-1.2,2.7-1.6,4.4-1.6c1.7,0,3.2,0.6,4.4,1.6c1.3,1.2,2,2.8,2,4.7v9.8
			c0,2-0.7,3.6-2,4.7c-1.2,1.2-2.7,1.6-4.4,1.6c-1.7,0-3.2-0.6-4.4-1.6C158.3,133.2,157.8,131.6,157.8,129.6z M167.1,129.5V120
			c0-1-0.2-1.9-0.8-2.5c-0.6-0.6-1.3-0.9-2.3-0.9c-0.9,0-1.7,0.3-2.3,0.9s-0.8,1.4-0.8,2.5v9.5c0,1,0.2,1.9,0.8,2.5
			c0.6,0.6,1.3,0.9,2.3,0.9c0.9,0,1.7-0.3,2.3-0.9C166.9,131.4,167.1,130.6,167.1,129.5z"/>
	</g>
	<path fill="#EB1F30" d="M150.7,84c-22.6,0-40.9,18.3-40.9,40.9s18.3,40.9,40.9,40.9s40.9-18.3,40.9-40.9S173.4,84,150.7,84z
		 M150.7,158.9c-18.8,0-34-15.3-34-34s15.3-34,34-34s34,15.2,34,34S169.6,158.9,150.7,158.9z"/>
</g>
</svg>
